<?xml version="1.0" standalone="no"?>
<!DOCTYPE svg PUBLIC "-//W3C//DTD SVG 20010904//EN"
 "http://www.w3.org/TR/2001/REC-SVG-20010904/DTD/svg10.dtd">
<svg version="1.0" xmlns="http://www.w3.org/2000/svg"
 width="2322.000000pt" height="1574.000000pt" viewBox="0 0 2322.000000 1574.000000"
 preserveAspectRatio="xMidYMid meet">
<metadata>
Created by potrace 1.16, written by Peter Selinger 2001-2019
</metadata>
<g transform="translate(0.000000,1574.000000) scale(0.100000,-0.100000)"
fill="#000000" stroke="none">
<path d="M4885 15726 c-66 -12 -156 -62 -189 -105 -12 -14 -36 -43 -55 -64
-44 -48 -78 -131 -95 -227 -17 -91 -13 -368 10 -710 1 -25 5 -124 7 -220 4
-165 8 -246 25 -470 8 -115 8 -374 1 -853 -3 -197 -2 -380 2 -405 45 -257 44
-197 15 -1021 -15 -421 -29 -767 -32 -770 -2 -3 -37 5 -77 16 -39 12 -110 29
-157 38 -51 10 -115 32 -160 55 -59 29 -106 43 -218 64 -79 14 -151 30 -162
36 -10 5 -29 10 -41 10 -29 0 -223 57 -276 81 -69 31 -186 59 -259 63 -38 2
-96 9 -130 15 -33 6 -114 13 -180 15 -65 3 -139 9 -164 14 -61 13 -1066 8
-1158 -6 -40 -5 -87 -19 -105 -29 -18 -11 -46 -23 -62 -27 -17 -4 -46 -17 -65
-29 -50 -32 -200 -104 -231 -111 -14 -3 -41 -17 -60 -30 -19 -14 -52 -37 -74
-52 -22 -15 -41 -31 -43 -35 -2 -5 -9 -9 -15 -9 -6 0 -49 -25 -95 -56 -93 -62
-325 -286 -381 -369 -35 -50 -111 -193 -111 -208 0 -4 -29 -67 -65 -140 -36
-73 -70 -151 -75 -175 -6 -23 -24 -61 -40 -84 -17 -22 -35 -60 -40 -82 -6 -23
-27 -77 -47 -121 -92 -201 -82 -143 -82 -487 0 -169 5 -342 10 -385 5 -43 13
-125 18 -183 6 -74 16 -124 34 -170 14 -36 29 -83 32 -105 4 -22 35 -98 70
-170 34 -71 65 -143 69 -160 10 -40 61 -146 110 -228 59 -98 92 -157 114 -202
11 -22 46 -72 78 -112 79 -96 112 -144 154 -222 49 -93 193 -291 272 -377 36
-40 68 -70 70 -68 5 4 48 -36 96 -89 18 -20 46 -44 61 -53 16 -9 55 -45 87
-80 33 -35 83 -87 113 -116 119 -117 201 -204 206 -219 6 -17 129 -85 208
-114 33 -13 49 -25 53 -41 9 -35 202 -210 276 -251 22 -12 56 -37 76 -55 21
-19 55 -47 77 -63 22 -16 77 -64 121 -107 57 -55 89 -78 106 -78 14 0 52 -18
84 -40 33 -22 75 -45 94 -51 19 -7 64 -30 100 -53 36 -22 90 -54 121 -70 31
-16 85 -54 121 -85 129 -110 144 -122 212 -157 38 -19 95 -55 127 -79 32 -24
75 -53 96 -64 21 -10 83 -49 138 -85 55 -36 107 -66 116 -66 8 0 37 -14 63
-31 27 -16 90 -49 141 -72 79 -36 98 -50 130 -92 60 -78 106 -123 160 -155 28
-16 77 -54 110 -85 33 -31 77 -68 97 -81 52 -33 65 -58 71 -136 4 -38 11 -78
18 -89 6 -12 12 -56 14 -98 2 -42 8 -96 15 -121 7 -25 13 -94 15 -155 2 -65 9
-126 18 -150 25 -69 39 -166 43 -301 2 -72 13 -182 24 -245 12 -63 24 -136 28
-164 4 -27 7 -313 7 -635 -1 -580 -1 -585 -23 -624 -12 -23 -24 -67 -28 -108
-5 -49 -13 -78 -30 -101 -13 -18 -34 -47 -46 -66 -53 -83 -340 -250 -442 -258
-28 -2 -80 -17 -116 -32 -111 -48 -162 -63 -240 -72 -313 -36 -630 -43 -699
-16 -44 18 -127 22 -150 8 -8 -5 -27 -5 -45 0 -75 23 -93 28 -132 38 -34 9
-45 18 -63 55 -24 45 -54 66 -96 66 -14 0 -34 9 -46 21 -17 17 -20 28 -14 67
4 33 0 67 -13 112 -16 54 -19 93 -17 230 1 151 3 168 23 200 13 19 25 46 28
60 5 28 14 44 63 118 34 52 86 82 169 98 39 8 109 -17 166 -58 21 -15 43 -28
48 -28 6 0 28 -16 50 -34 22 -19 54 -38 72 -41 17 -4 49 -13 71 -20 41 -13
100 -9 207 16 97 22 152 127 151 290 -1 88 -20 147 -58 179 -9 8 -26 32 -37
54 -26 52 -119 154 -167 183 -19 12 -48 25 -64 29 -16 3 -37 14 -48 25 -10 10
-40 29 -66 42 -76 39 -196 50 -464 44 -221 -5 -238 -6 -302 -31 -98 -38 -146
-64 -194 -106 -23 -20 -75 -53 -115 -72 -94 -45 -194 -148 -238 -244 -16 -36
-40 -79 -54 -95 -14 -16 -28 -39 -32 -51 -4 -13 -15 -34 -25 -47 -15 -19 -19
-41 -19 -107 0 -45 4 -93 9 -106 6 -17 4 -40 -10 -78 -17 -49 -19 -85 -19
-375 0 -344 -3 -323 61 -507 31 -90 78 -167 134 -220 67 -65 216 -188 226
-188 5 0 9 -7 9 -15 0 -19 84 -101 125 -122 17 -9 55 -39 85 -68 45 -42 66
-55 110 -64 30 -6 75 -22 100 -35 25 -13 65 -27 90 -31 45 -7 63 -11 155 -41
88 -28 154 -44 213 -50 31 -3 77 -15 100 -26 41 -19 67 -21 410 -24 381 -3
411 -1 557 43 76 23 107 31 145 38 19 4 51 16 70 25 20 10 72 26 115 35 44 9
85 21 92 26 7 6 47 15 90 20 79 10 101 19 293 121 36 19 77 38 93 42 15 3 44
21 65 40 20 18 66 53 101 77 34 24 106 74 160 112 53 37 132 92 176 122 87 59
190 171 253 273 46 76 103 157 162 231 84 104 136 186 168 261 17 41 43 100
58 130 14 30 32 71 39 90 7 19 27 65 44 102 17 36 31 70 31 74 0 5 21 55 46
112 36 81 49 124 59 200 7 53 19 122 28 152 8 30 18 82 22 114 4 33 11 71 17
85 5 14 10 91 10 171 1 131 3 148 22 173 19 25 21 42 21 150 0 125 -18 334
-35 410 -5 23 -14 92 -20 152 -6 61 -19 137 -29 170 -10 33 -24 78 -30 100
-36 133 -57 189 -151 405 -33 74 -73 172 -90 217 -17 44 -37 87 -45 93 -8 7
-15 16 -15 21 0 8 -48 84 -85 134 -13 19 -12 23 19 55 18 19 71 62 117 95 85
61 207 178 237 227 9 15 46 52 83 83 37 31 75 71 83 90 9 19 57 71 107 117 59
54 110 112 145 165 29 45 65 88 78 95 34 18 296 251 377 335 36 37 93 109 126
158 131 196 126 190 263 354 31 36 80 101 110 144 29 42 57 77 61 77 4 0 17
17 30 38 12 20 32 48 44 62 33 39 105 164 116 203 5 19 27 61 49 93 22 32 42
72 46 89 11 56 74 205 103 246 17 22 33 55 36 72 8 39 52 154 70 182 8 11 19
40 26 65 l12 45 13 -88 c38 -250 132 -447 280 -587 122 -115 264 -170 436
-170 212 0 389 70 585 231 l72 60 11 -43 c30 -111 113 -206 203 -233 191 -57
452 40 654 242 52 52 65 60 69 46 47 -141 165 -245 325 -289 178 -47 457 -15
634 73 212 106 404 313 484 523 55 143 65 198 65 392 1 98 3 178 6 178 3 0 19
-9 37 -19 66 -41 106 -148 153 -406 71 -386 133 -560 236 -655 68 -62 143 -93
239 -98 173 -9 337 63 497 216 l67 64 21 -43 c52 -100 188 -192 336 -225 107
-23 347 -15 454 15 344 100 606 393 685 766 30 142 30 329 1 615 -35 334 -41
480 -27 613 23 211 89 404 157 460 61 51 81 118 48 165 -30 44 -125 24 -177
-37 -18 -22 -55 -41 -136 -71 -551 -203 -920 -495 -1040 -826 -68 -187 -63
-374 13 -522 30 -58 125 -150 187 -181 126 -63 281 -68 395 -11 80 39 103 71
125 179 25 118 25 118 -21 141 -51 26 -56 26 -98 -11 -57 -50 -116 -72 -177
-66 -173 18 -274 185 -231 384 53 254 328 516 728 695 59 26 110 48 112 48 2
0 -25 -55 -59 -122 -76 -148 -119 -274 -147 -428 -18 -102 -20 -146 -17 -395
5 -377 2 -554 -11 -652 -46 -351 -196 -551 -456 -609 -215 -47 -396 28 -398
165 -1 44 3 54 34 86 19 20 54 47 77 61 41 24 43 27 43 75 0 45 -3 51 -32 69
-18 11 -54 27 -79 35 -38 13 -49 23 -64 55 -14 32 -25 41 -51 46 -19 3 -40 4
-46 1 -7 -2 -34 -42 -60 -89 -143 -256 -356 -458 -486 -458 -98 0 -130 56
-216 386 -63 242 -93 329 -148 435 -47 92 -94 149 -160 193 l-49 34 68 37
c336 187 500 437 479 734 -11 157 -67 273 -186 384 -181 171 -429 250 -785
250 -192 0 -312 -19 -478 -74 -221 -73 -385 -175 -552 -343 -206 -208 -305
-425 -305 -669 0 -172 49 -306 150 -408 101 -102 229 -145 412 -137 155 7 263
53 389 167 55 49 60 57 57 90 -2 30 -9 39 -38 53 -51 25 -63 22 -126 -22 -163
-114 -329 -84 -434 80 -52 80 -72 159 -73 280 -1 169 47 305 163 458 118 158
280 264 492 326 440 127 840 -39 933 -389 22 -79 22 -259 0 -340 -43 -164
-142 -287 -285 -357 -67 -32 -150 -61 -156 -55 -9 8 -24 268 -24 402 0 262 46
419 151 523 27 26 49 52 49 57 0 6 -20 33 -43 60 l-44 49 -27 -17 c-49 -32
-166 -149 -216 -216 -102 -135 -165 -288 -202 -491 -20 -106 -22 -150 -22
-570 -1 -512 -4 -533 -76 -685 -49 -103 -116 -172 -213 -220 -121 -60 -290
-81 -419 -54 -71 16 -128 70 -128 123 0 51 31 106 85 154 42 37 45 42 45 91
l0 52 -82 39 c-45 22 -90 40 -100 40 -12 0 -24 14 -34 39 -13 33 -23 42 -59
55 l-44 14 -42 -76 c-154 -281 -344 -465 -518 -503 -69 -15 -96 -7 -110 32 -8
22 -11 229 -11 660 l0 628 63 42 c182 124 282 286 294 481 12 177 -34 298
-161 423 -240 237 -635 290 -1020 136 -157 -63 -286 -152 -416 -288 -193 -200
-322 -413 -412 -683 -22 -63 -37 -103 -35 -88 2 14 -2 64 -10 110 -8 45 -16
108 -19 138 -5 52 -13 74 -70 198 -13 29 -24 62 -24 75 0 23 -28 82 -113 238
-82 151 -285 367 -438 465 -26 17 -73 37 -105 44 -33 8 -96 34 -142 57 -75 40
-92 45 -195 54 -66 7 -126 19 -147 29 -53 26 -98 32 -289 35 -160 3 -181 1
-255 -21 -44 -13 -98 -24 -121 -24 -23 0 -63 -11 -91 -24 -27 -13 -74 -26
-104 -28 -30 -3 -71 -13 -90 -22 -131 -63 -210 -120 -294 -212 -32 -36 -72
-71 -90 -79 -72 -33 -140 -77 -189 -121 -29 -26 -63 -54 -77 -62 -14 -9 -39
-28 -55 -44 l-31 -28 -63 47 c-66 50 -130 90 -267 166 -44 25 -98 57 -119 71
-21 14 -55 31 -75 36 -21 6 -62 27 -92 47 -29 20 -81 45 -116 54 -34 10 -75
26 -90 37 -54 38 -182 90 -259 105 -51 10 -127 14 -218 13 -115 -1 -146 1
-176 16 -72 34 -288 56 -369 38 -51 -12 -220 -60 -253 -72 -15 -6 -43 -22 -62
-37 -19 -14 -58 -42 -86 -61 -46 -32 -83 -60 -176 -135 -32 -26 -151 -232
-171 -295 -6 -19 -13 -61 -17 -93 -4 -32 -14 -75 -22 -95 -9 -22 -15 -65 -15
-107 1 -38 -6 -90 -14 -114 -12 -35 -15 -102 -16 -305 -1 -239 1 -265 19 -311
28 -71 43 -118 43 -141 0 -44 73 -238 112 -298 7 -11 29 -44 48 -74 19 -30 44
-70 56 -88 11 -19 35 -49 51 -67 17 -18 36 -48 42 -68 17 -52 134 -184 186
-209 44 -21 83 -61 140 -141 46 -64 213 -225 264 -253 28 -16 194 -152 251
-207 30 -28 71 -58 90 -67 19 -8 53 -27 77 -43 23 -16 44 -29 46 -29 16 0 149
-86 186 -120 24 -22 48 -40 52 -40 5 0 31 -15 57 -33 26 -18 72 -46 102 -61
30 -15 75 -43 98 -61 24 -19 58 -37 75 -41 18 -3 45 -17 61 -31 38 -32 78 -52
140 -70 55 -16 181 -77 206 -98 19 -17 130 -72 179 -90 20 -7 67 -34 105 -59
l68 -47 24 21 23 22 -20 28 c-14 18 -24 55 -31 109 -12 98 -41 177 -99 262
-53 80 -157 181 -227 223 -29 17 -61 36 -70 41 -76 44 -97 73 -94 127 2 19 -5
32 -24 45 -14 10 -70 53 -124 95 -97 77 -113 93 -179 183 -19 25 -78 81 -131
124 -53 43 -141 121 -196 173 -54 53 -115 109 -134 124 -81 66 -189 185 -200
222 -7 20 -22 53 -34 72 -12 19 -27 47 -33 62 -11 24 -94 123 -181 216 -16 17
-35 47 -41 65 -13 34 -66 365 -90 552 -9 69 2 201 24 285 8 32 15 77 15 101 1
55 26 130 65 191 25 40 35 47 62 48 18 0 80 7 138 16 74 11 149 14 248 11 163
-6 243 -18 319 -48 29 -11 67 -26 83 -33 17 -6 46 -23 66 -38 20 -16 39 -28
42 -28 16 0 101 -66 137 -108 23 -25 58 -58 79 -72 65 -44 181 -154 198 -188
8 -18 30 -42 47 -54 17 -12 49 -41 71 -65 49 -51 96 -72 184 -81 128 -12 142
-10 219 36 39 23 93 54 119 68 58 31 106 64 153 108 19 18 55 44 80 59 25 14
68 48 95 74 28 26 91 84 140 128 50 44 93 85 98 92 18 29 81 93 91 93 6 0 30
13 54 29 40 28 103 51 215 81 56 15 250 8 271 -9 7 -6 36 -19 64 -29 52 -18
51 -16 162 -174 22 -31 40 -63 40 -69 0 -24 92 -204 117 -231 l26 -27 2 -283
c1 -253 0 -290 -18 -348 -10 -36 -34 -118 -53 -184 -37 -125 -55 -168 -85
-201 -29 -32 -159 -279 -159 -303 0 -7 -12 -31 -27 -53 -26 -38 -44 -67 -101
-165 -12 -21 -36 -57 -53 -79 -29 -39 -57 -80 -108 -160 -43 -67 -100 -140
-183 -234 -16 -18 -36 -50 -45 -70 -28 -64 -46 -95 -77 -132 -17 -20 -65 -83
-107 -140 -90 -122 -226 -278 -302 -347 -73 -67 -124 -124 -182 -207 -71 -101
-108 -139 -220 -227 -55 -43 -120 -95 -145 -116 -41 -34 -129 -95 -140 -97 -3
0 -34 -17 -70 -36 -36 -20 -87 -45 -114 -55 -27 -11 -64 -34 -84 -51 -25 -24
-39 -30 -51 -24 -9 4 -41 11 -72 15 -91 10 -204 57 -345 144 -28 18 -70 39
-94 47 -24 8 -109 50 -189 92 -80 42 -177 92 -215 111 -64 32 -235 158 -316
233 -57 53 -200 163 -265 204 -159 102 -285 202 -317 254 -33 53 -248 246
-337 302 -24 16 -55 48 -70 73 -14 24 -71 84 -127 132 -55 49 -147 131 -205
183 -156 140 -169 151 -178 151 -19 0 -163 162 -217 245 -58 88 -90 131 -106
143 -10 7 -18 20 -18 28 0 8 -4 14 -9 14 -5 0 -30 33 -56 72 -26 40 -65 96
-86 124 -22 28 -47 75 -58 105 -18 52 -53 139 -91 225 -10 23 -22 59 -25 80
-18 109 -39 195 -59 244 -22 55 -22 58 -21 556 l2 501 42 85 c22 47 41 91 41
97 0 26 116 227 151 262 10 10 30 36 43 58 25 39 77 79 146 114 19 10 51 28
70 42 19 13 49 34 65 45 17 11 46 32 65 45 19 14 55 34 80 46 25 11 77 36 115
55 39 18 104 41 145 50 128 28 358 17 585 -26 79 -16 241 -32 355 -36 111 -4
120 -4 270 -28 105 -16 275 -57 308 -75 11 -6 31 -11 44 -11 13 0 59 -18 103
-40 44 -22 86 -40 93 -40 7 0 27 -7 45 -17 18 -9 46 -20 62 -24 17 -4 62 -18
100 -29 39 -12 88 -26 110 -31 22 -6 72 -26 110 -46 56 -29 83 -36 137 -38 72
-3 92 -8 153 -34 112 -49 146 -61 215 -77 71 -16 80 -16 133 0 31 9 73 31 93
48 37 33 74 95 74 125 0 18 787 928 819 947 8 5 29 23 47 40 104 101 204 192
303 276 61 52 111 98 111 101 0 5 65 85 121 147 16 18 38 51 50 74 28 55 84
134 131 186 22 24 45 55 51 70 7 15 20 39 30 52 52 74 90 136 99 164 10 31 47
109 73 156 8 14 36 70 62 125 26 55 54 106 61 113 6 7 12 29 12 47 0 20 11 50
26 72 41 61 89 172 111 258 56 218 56 218 57 485 3 408 -13 555 -84 805 -17
61 -35 124 -40 140 -17 66 -176 394 -227 470 -18 27 -33 55 -33 61 0 16 -213
230 -278 279 -29 22 -70 54 -90 71 -20 17 -72 50 -114 73 -43 23 -80 47 -84
52 -7 12 -186 99 -202 99 -7 0 -45 11 -85 25 -41 13 -98 31 -128 39 -202 55
-368 111 -427 141 -42 22 -66 28 -115 28 -34 -1 -89 7 -122 17 -33 10 -80 21
-105 25 -25 4 -56 9 -70 11 -97 17 -409 23 -485 10z m816 -571 c41 -14 88 -29
104 -34 82 -22 365 -194 365 -222 0 -4 28 -36 61 -70 60 -61 129 -157 129
-179 0 -5 4 -10 8 -10 4 0 15 -15 24 -32 8 -18 24 -51 35 -73 12 -22 40 -96
63 -165 23 -69 53 -152 65 -185 13 -33 26 -85 30 -115 4 -30 12 -63 17 -73 10
-19 17 -56 25 -122 2 -22 8 -49 13 -60 9 -21 22 -111 22 -160 1 -81 -15 -304
-23 -331 -6 -18 -12 -72 -14 -121 -2 -50 -10 -105 -19 -124 -8 -19 -22 -72
-31 -117 -9 -49 -30 -112 -50 -150 -22 -43 -35 -87 -38 -122 -3 -33 -15 -73
-31 -100 -14 -24 -28 -69 -32 -99 -4 -31 -17 -69 -30 -89 -13 -19 -24 -40 -24
-46 0 -6 -25 -52 -55 -101 -30 -50 -55 -95 -55 -100 0 -6 -24 -46 -52 -91 -29
-45 -64 -100 -78 -123 -49 -83 -137 -186 -167 -195 -10 -3 -34 -30 -53 -60
-19 -29 -72 -99 -117 -155 -46 -56 -83 -105 -83 -110 0 -4 -10 -16 -21 -27
-25 -22 -139 -161 -139 -169 0 -20 -67 -90 -105 -109 l-46 -24 -8 22 c-8 21
-29 346 -36 566 -2 63 -8 165 -14 225 -5 61 -49 802 -98 1647 l-87 1538 42 40
c23 22 52 45 64 50 14 6 93 8 194 6 153 -4 180 -8 245 -31z m3949 -5675 c94
-15 200 -69 266 -134 107 -108 161 -281 135 -438 -13 -79 -52 -177 -82 -204
-19 -17 -19 -13 -19 134 0 146 1 151 25 180 38 45 34 93 -10 126 l-35 27 -168
-58 -167 -59 -3 -248 -2 -248 -28 7 c-81 19 -100 101 -43 181 33 47 33 48 19
93 -14 45 -15 46 -68 54 -179 27 -284 -50 -284 -208 0 -151 133 -263 333 -281
l71 -7 0 -462 0 -462 -73 -70 c-137 -130 -254 -193 -372 -201 -185 -12 -339
96 -446 313 -95 193 -133 440 -111 732 7 87 22 203 33 258 85 416 290 728 581
885 163 88 294 114 448 90z"/>
<path d="M16020 9644 c-73 -13 -171 -40 -223 -60 -194 -76 -378 -231 -503
-424 -161 -250 -200 -578 -94 -794 36 -73 104 -154 165 -196 136 -94 342 -111
509 -44 133 53 267 188 321 323 54 133 56 302 5 402 -63 122 -202 178 -334
133 -39 -13 -57 -29 -106 -92 -33 -43 -56 -81 -52 -87 4 -7 20 -27 35 -45 28
-32 29 -33 67 -20 48 16 115 8 142 -17 39 -34 62 -102 61 -178 -1 -80 -17
-126 -62 -178 -64 -72 -176 -85 -280 -33 -61 31 -152 129 -185 200 -86 182
-70 438 41 624 77 129 214 243 341 282 422 130 752 -220 832 -885 15 -119 15
-428 0 -535 -65 -484 -323 -830 -661 -887 -109 -19 -179 -11 -251 25 -108 55
-113 140 -14 237 29 28 84 67 123 88 l70 37 -5 52 c-2 29 -6 55 -7 56 -2 2
-59 17 -127 33 -108 26 -129 29 -168 19 -164 -41 -251 -281 -167 -464 52 -113
183 -209 325 -237 143 -27 350 7 517 86 240 114 454 336 573 596 160 345 212
813 132 1183 -12 54 -20 99 -18 100 2 2 44 33 94 69 l92 67 55 -25 c115 -51
267 -70 368 -46 l36 8 -57 -116 c-103 -207 -169 -414 -211 -656 -26 -153 -36
-451 -20 -592 36 -306 165 -553 335 -640 61 -32 180 -42 269 -23 170 35 378
197 530 412 l41 58 48 -93 c143 -279 353 -407 643 -394 129 6 223 31 334 87
76 38 217 137 255 179 26 29 33 27 40 -11 9 -47 48 -127 81 -166 86 -102 283
-121 472 -45 197 79 407 286 553 546 31 55 32 61 21 98 -10 34 -19 43 -58 60
-25 11 -47 18 -48 17 -1 -2 -17 -30 -35 -63 -153 -279 -315 -446 -488 -504
-85 -29 -117 -27 -139 6 -17 25 -18 74 -21 663 l-3 636 70 48 c146 99 250 243
281 387 17 78 8 260 -15 319 -158 394 -722 537 -1211 306 -130 -62 -236 -137
-339 -240 -361 -361 -547 -859 -521 -1386 4 -74 11 -157 16 -185 7 -47 6 -54
-28 -110 -122 -206 -251 -345 -377 -406 -82 -40 -124 -38 -173 6 -138 124
-217 622 -183 1149 24 367 91 616 212 793 16 23 29 55 29 71 0 26 -6 31 -52
49 l-53 20 -32 -28 c-91 -79 -215 -63 -382 48 -52 35 -98 63 -103 63 -5 0 -93
-64 -196 -142 -142 -108 -188 -138 -194 -127 -175 302 -338 449 -573 514 -59
16 -310 29 -365 19z m3915 -169 c187 -40 327 -174 370 -356 36 -153 6 -321
-75 -419 l-20 -25 2 156 c3 153 3 156 31 188 41 49 37 89 -12 124 l-39 27
-169 -59 -168 -58 -3 -247 c-1 -161 -6 -246 -13 -246 -20 0 -69 30 -79 49 -23
44 -9 102 36 151 23 25 23 26 7 77 l-16 51 -83 7 c-93 8 -137 -2 -186 -43 -60
-50 -84 -151 -58 -244 31 -109 200 -208 356 -208 l34 0 0 -463 0 -464 -77 -75
c-148 -144 -278 -205 -417 -196 -127 8 -236 73 -321 192 -132 186 -185 385
-185 701 0 244 22 407 82 595 113 357 336 624 616 741 136 56 261 71 387 44z"/>
<path d="M7623 5965 c-238 -66 -463 -332 -556 -655 -61 -210 -60 -197 -66
-1155 -6 -955 -4 -908 -60 -959 -14 -13 -21 -31 -21 -57 0 -33 6 -42 45 -73
l45 -34 88 24 c48 13 132 37 187 52 l100 28 3 301 2 301 109 104 c163 155 249
193 265 117 3 -17 6 -176 6 -353 0 -362 4 -386 67 -451 20 -21 51 -44 69 -51
40 -17 133 -18 206 -3 80 17 223 88 313 156 78 60 239 218 303 298 l31 40 1
-51 c1 -185 94 -347 239 -416 55 -26 81 -32 161 -36 148 -7 255 27 378 120 35
27 65 48 66 48 2 0 6 -10 10 -22 10 -40 68 -100 120 -124 96 -45 244 -25 382
51 177 98 376 290 523 504 l51 75 0 -769 c0 -840 -2 -874 -52 -931 -24 -27
-29 -40 -26 -75 3 -35 9 -45 44 -71 l42 -30 191 53 191 52 0 568 0 569 23 -9
c51 -20 132 -23 198 -7 54 12 80 13 135 4 94 -14 262 -4 352 21 96 28 233 97
317 161 l66 50 45 -19 44 -20 62 54 c112 96 249 266 346 432 l54 90 101 6 c56
3 134 14 173 24 l71 19 -48 -74 c-177 -271 -149 -617 58 -719 144 -70 336 -31
540 109 85 58 268 235 323 312 l35 48 7 -83 c11 -141 57 -241 148 -323 69 -62
139 -88 249 -94 148 -7 269 33 388 127 l51 40 30 -48 c53 -86 120 -121 229
-121 74 0 188 34 270 81 168 96 363 286 512 499 l53 75 -4 -225 c-4 -238 -11
-275 -59 -326 -15 -16 -19 -32 -17 -64 3 -36 9 -46 44 -72 l42 -30 191 53 191
52 0 303 0 302 92 91 c141 140 226 191 262 156 14 -15 16 -53 16 -340 0 -197
4 -344 11 -375 24 -111 112 -180 229 -180 203 0 434 135 661 388 l57 63 11
-63 c32 -184 164 -316 367 -368 67 -17 111 -20 344 -20 355 0 467 19 654 111
210 104 401 297 555 561 31 53 58 97 61 97 3 0 23 -28 44 -62 212 -334 321
-530 332 -596 5 -27 18 -46 55 -76 27 -22 57 -38 66 -37 10 2 74 3 143 2 414
-5 731 148 978 474 l22 29 0 -50 c0 -180 94 -344 237 -415 55 -27 78 -32 161
-36 150 -7 256 26 380 120 35 27 65 48 66 48 2 0 6 -10 10 -22 10 -40 68 -100
120 -124 234 -109 644 154 935 600 l51 79 0 113 c0 63 -2 114 -4 114 -2 0 -19
7 -39 15 l-34 14 -67 -117 c-37 -64 -97 -160 -134 -212 -78 -110 -233 -270
-312 -322 -57 -37 -148 -73 -159 -63 -3 4 -7 166 -9 360 -3 387 0 421 49 464
23 20 29 34 29 66 0 38 -3 42 -49 68 -27 15 -54 27 -61 27 -7 0 -61 -30 -122
-66 l-109 -66 -47 20 c-89 38 -155 52 -243 52 -159 0 -303 -64 -431 -192 l-56
-56 -57 14 c-32 9 -58 14 -59 12 -2 -2 -23 -41 -49 -88 -25 -47 -71 -123 -102
-170 -219 -327 -459 -481 -769 -497 l-110 -6 23 39 c238 399 370 680 428 911
24 94 28 128 28 263 0 177 -15 241 -81 338 -87 130 -193 194 -331 200 l-83 4
-100 -62 c-55 -34 -100 -67 -100 -73 0 -6 5 -37 12 -69 9 -44 16 -58 30 -58
42 0 135 -45 181 -89 98 -92 137 -191 144 -373 9 -204 -33 -387 -139 -610
l-50 -107 -119 189 c-171 273 -233 407 -227 487 1 21 -7 41 -27 66 -27 33 -35
36 -74 34 l-44 -2 -70 -170 c-38 -93 -72 -174 -76 -178 -4 -4 -30 2 -57 13
-27 12 -50 17 -52 12 -1 -4 -30 -59 -65 -120 -163 -293 -333 -472 -541 -567
-64 -30 -175 -65 -206 -65 -6 0 16 30 50 67 40 44 77 99 106 158 61 125 77
195 72 319 -5 125 -31 189 -113 275 -109 115 -230 156 -435 149 -106 -4 -138
-9 -213 -35 -103 -36 -174 -77 -267 -155 l-69 -58 -47 20 c-26 11 -48 19 -49
18 -1 -2 -23 -42 -48 -89 -112 -208 -265 -406 -395 -510 -117 -95 -196 -124
-207 -76 -3 12 -6 173 -7 357 -3 369 -3 370 -68 444 -57 65 -100 81 -215 81
-85 0 -109 -4 -161 -26 -76 -32 -187 -105 -259 -171 l-55 -50 0 66 c0 58 3 70
26 92 20 21 24 34 22 66 -3 34 -9 45 -45 71 l-42 30 -173 -49 -173 -50 -3
-101 -3 -102 -24 9 c-22 8 -27 3 -81 -93 -153 -275 -348 -498 -504 -576 -82
-42 -106 -46 -114 -18 -11 41 -7 700 5 741 6 22 24 52 40 67 22 21 29 36 29
66 0 35 -4 40 -49 66 -27 15 -54 27 -61 27 -7 0 -61 -30 -122 -66 l-109 -66
-47 20 c-89 38 -155 52 -243 52 -157 0 -295 -60 -425 -185 l-68 -66 -49 21
c-28 11 -51 19 -52 18 -1 -2 -25 -46 -55 -98 -148 -264 -326 -472 -468 -548
-103 -55 -162 -39 -209 55 -24 50 -28 72 -31 163 -7 181 49 323 181 467 37 40
38 43 27 83 -10 35 -17 44 -56 61 -58 24 -55 24 -133 -8 -60 -25 -77 -28 -196
-28 -105 0 -141 4 -185 20 -53 19 -55 21 -52 53 2 24 -6 43 -30 72 -30 38 -34
40 -88 40 l-56 0 -23 -102 c-19 -84 -73 -251 -87 -267 -2 -2 -27 6 -55 18 -29
12 -53 20 -54 19 -1 -2 -23 -43 -50 -93 -156 -292 -343 -499 -540 -598 -41
-20 -174 -67 -192 -67 -3 0 13 20 34 44 129 147 193 365 164 556 -23 151 -107
272 -230 333 -63 31 -71 32 -181 32 -149 -1 -206 -22 -367 -141 -22 -16 -23
-15 -23 3 0 11 12 32 26 46 20 21 25 33 22 67 -3 36 -9 46 -45 73 l-42 30
-173 -49 -173 -50 -3 -101 -3 -102 -23 9 c-22 8 -28 2 -90 -108 -37 -64 -97
-160 -134 -212 -78 -110 -233 -270 -312 -322 -57 -37 -148 -73 -159 -63 -3 4
-6 174 -6 378 0 399 2 420 51 452 19 12 24 24 24 58 0 40 -2 43 -49 70 -27 15
-54 27 -61 27 -7 0 -61 -30 -122 -66 l-109 -66 -57 24 c-92 40 -155 51 -261
45 -156 -8 -279 -66 -402 -188 -55 -55 -56 -55 -90 -44 -83 29 -73 34 -130
-67 -150 -267 -309 -460 -462 -559 -65 -42 -113 -57 -130 -40 -9 9 -14 119
-17 369 -5 342 -6 359 -27 397 -61 115 -199 168 -341 131 -107 -27 -228 -98
-335 -196 l-57 -52 0 29 c0 19 33 80 103 188 436 673 593 995 629 1281 26 211
-47 371 -201 442 -70 32 -214 41 -298 17z m125 -212 c36 -51 47 -103 46 -218
-3 -293 -128 -656 -363 -1050 l-42 -70 4 390 c4 303 8 411 21 485 51 291 166
490 283 490 23 0 37 -7 51 -27z m1736 -1698 c33 -18 55 -45 73 -90 7 -19 12
-103 12 -232 l1 -201 -33 -44 c-18 -24 -57 -58 -87 -75 -189 -114 -347 80
-297 363 24 131 86 232 170 273 50 25 120 27 161 6z m5252 -27 c18 -20 37 -53
43 -75 6 -21 11 -124 11 -230 l0 -191 -33 -44 c-65 -84 -182 -129 -257 -98
-133 55 -180 316 -91 505 57 123 133 179 235 172 53 -3 62 -7 92 -39z m7278 3
c49 -48 56 -84 56 -304 l0 -195 -33 -44 c-64 -84 -182 -129 -257 -98 -36 15
-87 71 -106 116 -44 105 -37 278 15 389 57 123 133 179 234 172 48 -3 62 -8
91 -36z m-3659 3 c60 -28 115 -118 141 -231 12 -49 15 -102 12 -190 -4 -115
-6 -125 -38 -189 -45 -87 -102 -127 -183 -127 -88 0 -147 45 -192 148 -53 119
-66 333 -27 435 54 138 179 206 287 154z m-6953 -99 c57 -38 90 -115 96 -228
8 -155 -34 -282 -119 -364 -75 -72 -147 -82 -240 -35 l-54 27 -3 241 -2 241
50 52 c94 98 187 120 272 66z"/>
</g>
</svg>
